<?xml version="1.0" encoding="iso-8859-1"?>
<!-- Uploaded to: SVG Repo, www.svgrepo.com, Generator: SVG Repo Mixer Tools -->
<svg height="800px" width="800px" version="1.1" id="Layer_1" xmlns="http://www.w3.org/2000/svg" xmlns:xlink="http://www.w3.org/1999/xlink" 
	 viewBox="0 0 512 512" xml:space="preserve">
<path style="fill:#FF6647;" d="M379.663,107.423C341.154,55.603,296.385,23.775,274.87,8.48c-2.876-2.045-5.711-4.149-8.592-6.184
	c-2.314-1.635-4.832-2.737-7.712-2.124c-4.877,1.038-8,6.313-6.511,11.081c21.208,67.867,8.505,133.558-40.027,205.744
	c-13.849-28.726-21.115-55.53-21.115-78.159c0-5.216-4.78-9.347-9.945-8.585c-2.525,0.373-4.193,1.883-6.052,3.47
	c-2.149,1.833-4.363,3.591-6.564,5.361c-29.431,23.681-107.611,86.582-107.611,190.674c0,48.29,20.572,94.126,57.925,129.065
	c36.128,33.794,84.603,53.177,132.995,53.177c63.426,0,115.435-18.456,150.406-53.373c32.182-32.13,49.192-76.692,49.192-128.869
	C451.259,246.159,427.17,171.355,379.663,107.423z"/>
<path style="fill:#E35336;" d="M153.378,458.824c-37.354-34.941-57.925-80.777-57.925-129.065
	c0-92.296,61.46-152.202,95.907-181.104c-0.286-3.348-0.447-6.627-0.447-9.816c0-5.216-4.78-9.349-9.945-8.585
	c-2.525,0.373-4.193,1.883-6.053,3.47c-2.149,1.833-4.363,3.591-6.564,5.361C138.92,162.765,60.74,225.667,60.74,329.758
	c0,48.29,20.572,94.126,57.925,129.065C154.794,492.618,203.268,512,251.661,512c6.702,0,13.268-0.219,19.708-0.628
	C228.085,507.824,185.769,489.122,153.378,458.824z"/>
</svg>